# xmcd CD database file
#
# Track frame offsets:
#	150
#	12021
#	35794
#	48614
#	63213
#	78862
#	91973
#	103943
#	119584
#	135576
#	148953
#	174615
#	193047
#	215887
#	228879
#	247760
#	262660
#
# Disc length: 4648 seconds
#
# Revision: 0
# Processed by: cddbd v1.5.2PL0 Copyright (c) Steve Scherf et al.
# Submitted via: CDex 1.51
#
DISCID=ee122611
DTITLE=Danny and the Wonderbras - Live At The Fuck CD2
DYEAR=2014
DGENRE=Country
TTITLE0=Sea Cruise
TTITLE1=Separate Ways
TTITLE2=Rock The Joint
TTITLE3=Can't You See
TTITLE4=Hey Girl
TTITLE5=The Race Is On
TTITLE6=Rockin' Robin
TTITLE7=My Bella
TTITLE8=Hot Rod Gang
TTITLE9=Folsom Prison Blues
TTITLE10=Hey Joe
TTITLE11=Ring Of Fire
TTITLE12=Suspicious Minds
TTITLE13=Great Balls Of Fire
TTITLE14=Rockabilly Party
TTITLE15=Red Hot
TTITLE16=Interview mit G.Wrobel/Corvette Song
EXTD=YEAR: 2014
EXTT0=
EXTT1=
EXTT2=
EXTT3=
EXTT4=
EXTT5=
EXTT6=
EXTT7=
EXTT8=
EXTT9=
EXTT10=
EXTT11=
EXTT12=
EXTT13=
EXTT14=
EXTT15=
EXTT16=
PLAYORDER=
